<svg width="18" height="18" viewBox="0 0 18 18" fill="none" xmlns="http://www.w3.org/2000/svg">
<path d="M0 9C0 13.9706 4.02944 18 9 18C13.9706 18 18 13.9706 18 9C18 4.02944 13.9706 0 9 0C4.02944 0 0 4.02944 0 9Z" fill="#F00073"/>
<path d="M8.9998 5.1748C10.2373 5.1748 10.4061 5.1748 10.9123 5.1748C11.3623 5.1748 11.5873 5.2873 11.7561 5.34355C11.9811 5.45605 12.1498 5.51231 12.3186 5.68106C12.4873 5.8498 12.5998 6.01855 12.6561 6.24356C12.7123 6.4123 12.7686 6.6373 12.8248 7.08731C12.8248 7.59356 12.8248 7.70605 12.8248 8.9998C12.8248 10.2936 12.8248 10.4061 12.8248 10.9123C12.8248 11.3623 12.7123 11.5873 12.6561 11.7561C12.5436 11.9811 12.4873 12.1498 12.3186 12.3186C12.1498 12.4873 11.9811 12.5998 11.7561 12.6561C11.5873 12.7123 11.3623 12.7686 10.9123 12.8248C10.4061 12.8248 10.2936 12.8248 8.9998 12.8248C7.70605 12.8248 7.59356 12.8248 7.08731 12.8248C6.6373 12.8248 6.4123 12.7123 6.24356 12.6561C6.01855 12.5436 5.8498 12.4873 5.68106 12.3186C5.51231 12.1498 5.3998 11.9811 5.34355 11.7561C5.2873 11.5873 5.23105 11.3623 5.1748 10.9123C5.1748 10.4061 5.1748 10.2936 5.1748 8.9998C5.1748 7.70605 5.1748 7.59356 5.1748 7.08731C5.1748 6.6373 5.2873 6.4123 5.34355 6.24356C5.45605 6.01855 5.51231 5.8498 5.68106 5.68106C5.8498 5.51231 6.01855 5.3998 6.24356 5.34355C6.4123 5.2873 6.6373 5.23105 7.08731 5.1748C7.59356 5.1748 7.7623 5.1748 8.9998 5.1748ZM8.9998 4.33105C7.70605 4.33105 7.59356 4.33105 7.08731 4.33105C6.58105 4.33105 6.24356 4.44356 5.96231 4.55606C5.68106 4.66856 5.39981 4.83731 5.11856 5.11856C4.83731 5.39981 4.72481 5.62481 4.55606 5.96231C4.44356 6.24356 4.3873 6.58105 4.33105 7.08731C4.33105 7.59356 4.33105 7.7623 4.33105 8.9998C4.33105 10.2936 4.33105 10.4061 4.33105 10.9123C4.33105 11.4186 4.44356 11.7561 4.55606 12.0373C4.66856 12.3186 4.83731 12.5998 5.11856 12.8811C5.39981 13.1623 5.62481 13.2748 5.96231 13.4436C6.24356 13.5561 6.58105 13.6123 7.08731 13.6686C7.59356 13.6686 7.7623 13.6686 8.9998 13.6686C10.2373 13.6686 10.4061 13.6686 10.9123 13.6686C11.4186 13.6686 11.7561 13.5561 12.0373 13.4436C12.3186 13.3311 12.5998 13.1623 12.8811 12.8811C13.1623 12.5998 13.2748 12.3748 13.4436 12.0373C13.5561 11.7561 13.6123 11.4186 13.6686 10.9123C13.6686 10.4061 13.6686 10.2373 13.6686 8.9998C13.6686 7.7623 13.6686 7.59356 13.6686 7.08731C13.6686 6.58105 13.5561 6.24356 13.4436 5.96231C13.3311 5.68106 13.1623 5.39981 12.8811 5.11856C12.5998 4.83731 12.3748 4.72481 12.0373 4.55606C11.7561 4.44356 11.4186 4.3873 10.9123 4.33105C10.4061 4.33105 10.2936 4.33105 8.9998 4.33105Z" fill="white"/>
<path d="M8.9998 6.58105C7.6498 6.58105 6.58105 7.6498 6.58105 8.9998C6.58105 10.3498 7.6498 11.4186 8.9998 11.4186C10.3498 11.4186 11.4186 10.3498 11.4186 8.9998C11.4186 7.6498 10.3498 6.58105 8.9998 6.58105ZM8.9998 10.5748C8.15605 10.5748 7.4248 9.8998 7.4248 8.9998C7.4248 8.15605 8.0998 7.4248 8.9998 7.4248C9.84355 7.4248 10.5748 8.0998 10.5748 8.9998C10.5748 9.84355 9.84355 10.5748 8.9998 10.5748Z" fill="white"/>
<path d="M11.4748 7.08731C11.7855 7.08731 12.0373 6.83547 12.0373 6.52481C12.0373 6.21414 11.7855 5.96231 11.4748 5.96231C11.1641 5.96231 10.9123 6.21414 10.9123 6.52481C10.9123 6.83547 11.1641 7.08731 11.4748 7.08731Z" fill="white"/>
</svg>
