<svg width="18" height="18" viewBox="0 0 18 18" fill="none" xmlns="http://www.w3.org/2000/svg">
<path d="M0 9C0 13.9706 4.02944 18 9 18C13.9706 18 18 13.9706 18 9C18 4.02944 13.9706 0 9 0C4.02944 0 0 4.02944 0 9Z" fill="#2867B2"/>
<path d="M6.525 13.5H4.6125V7.48125H6.525V13.5ZM5.56875 6.6375C4.95 6.6375 4.5 6.1875 4.5 5.56875C4.5 4.95 5.00625 4.5 5.56875 4.5C6.1875 4.5 6.6375 4.95 6.6375 5.56875C6.6375 6.1875 6.1875 6.6375 5.56875 6.6375ZM13.5 13.5H11.5875V10.2375C11.5875 9.28125 11.1937 9 10.6312 9C10.0687 9 9.50625 9.45 9.50625 10.2937V13.5H7.59375V7.48125H9.39375V8.325C9.5625 7.93125 10.2375 7.3125 11.1937 7.3125C12.2625 7.3125 13.3875 7.93125 13.3875 9.7875V13.5H13.5Z" fill="white"/>
</svg>
