<svg width="18" height="18" viewBox="0 0 18 18" fill="none" xmlns="http://www.w3.org/2000/svg">
<path d="M0 9C0 13.9706 4.02944 18 9 18C13.9706 18 18 13.9706 18 9C18 4.02944 13.9706 0 9 0C4.02944 0 0 4.02944 0 9Z" fill="#FF0000"/>
<path d="M13.275 6.80586C13.1625 6.41211 12.8813 6.13086 12.4875 6.01836C11.8125 5.84961 8.94375 5.84961 8.94375 5.84961C8.94375 5.84961 6.13125 5.84961 5.4 6.01836C5.00625 6.13086 4.725 6.41211 4.6125 6.80586C4.5 7.53711 4.5 8.99961 4.5 8.99961C4.5 8.99961 4.5 10.4621 4.66875 11.1934C4.78125 11.5871 5.0625 11.8684 5.45625 11.9809C6.13125 12.1496 9 12.1496 9 12.1496C9 12.1496 11.8125 12.1496 12.5437 11.9809C12.9375 11.8684 13.2188 11.5871 13.3313 11.1934C13.5 10.4621 13.5 8.99961 13.5 8.99961C13.5 8.99961 13.5 7.53711 13.275 6.80586ZM8.1 10.3496V7.64961L10.4625 8.99961L8.1 10.3496Z" fill="white"/>
</svg>
